<mxfile host="app.diagrams.net" modified="2024-02-24T21:34:03.860Z" agent="Mozilla/5.0 (Windows NT 10.0; Win64; x64) AppleWebKit/537.36 (KHTML, like Gecko) Chrome/121.0.0.0 Safari/537.36" etag="oe1RrgBmZOZuBq3DOhKb" version="23.1.6" type="github">
  <diagram name="Page-1" id="l0cbIVbSWz3id3oi-s79">
    <mxGraphModel dx="1434" dy="866" grid="1" gridSize="10" guides="1" tooltips="1" connect="1" arrows="1" fold="1" page="1" pageScale="1" pageWidth="850" pageHeight="1100" math="0" shadow="0">
      <root>
        <mxCell id="0" />
        <mxCell id="1" parent="0" />
        <mxCell id="xlBdkiBRD-m0Y12R8QG5-7" value="" style="verticalLabelPosition=bottom;verticalAlign=top;html=1;shape=mxgraph.basic.frame;dx=10;whiteSpace=wrap;" vertex="1" parent="1">
          <mxGeometry x="350" y="177.1" width="500" height="450" as="geometry" />
        </mxCell>
        <mxCell id="xlBdkiBRD-m0Y12R8QG5-8" value="" style="image;html=1;image=img/lib/clip_art/computers/Server_Rack_128x128.png" vertex="1" parent="1">
          <mxGeometry x="440" y="362.1" width="80" height="80" as="geometry" />
        </mxCell>
        <mxCell id="xlBdkiBRD-m0Y12R8QG5-29" style="edgeStyle=orthogonalEdgeStyle;rounded=0;orthogonalLoop=1;jettySize=auto;html=1;entryX=0;entryY=0.5;entryDx=0;entryDy=0;" edge="1" parent="1" source="xlBdkiBRD-m0Y12R8QG5-10" target="xlBdkiBRD-m0Y12R8QG5-8">
          <mxGeometry relative="1" as="geometry" />
        </mxCell>
        <mxCell id="xlBdkiBRD-m0Y12R8QG5-10" value="" style="image;points=[];aspect=fixed;html=1;align=center;shadow=0;dashed=0;image=img/lib/allied_telesis/computer_and_terminals/Personal_Computer_Wireless.svg;direction=east;flipV=0;flipH=1;" vertex="1" parent="1">
          <mxGeometry x="92" y="370" width="63" height="64.2" as="geometry" />
        </mxCell>
        <mxCell id="xlBdkiBRD-m0Y12R8QG5-11" value="" style="sketch=0;points=[[0.015,0.015,0],[0.985,0.015,0],[0.985,0.985,0],[0.015,0.985,0],[0.25,0,0],[0.5,0,0],[0.75,0,0],[1,0.25,0],[1,0.5,0],[1,0.75,0],[0.75,1,0],[0.5,1,0],[0.25,1,0],[0,0.75,0],[0,0.5,0],[0,0.25,0]];verticalLabelPosition=bottom;html=1;verticalAlign=top;aspect=fixed;align=center;pointerEvents=1;shape=mxgraph.cisco19.dns_server;fillColor=#005073;strokeColor=none;" vertex="1" parent="1">
          <mxGeometry x="100" y="130" width="47" height="85.46" as="geometry" />
        </mxCell>
        <mxCell id="xlBdkiBRD-m0Y12R8QG5-15" style="edgeStyle=orthogonalEdgeStyle;rounded=0;orthogonalLoop=1;jettySize=auto;html=1;entryX=0.75;entryY=1;entryDx=0;entryDy=0;entryPerimeter=0;exitX=0.317;exitY=-0.047;exitDx=0;exitDy=0;exitPerimeter=0;" edge="1" parent="1" source="xlBdkiBRD-m0Y12R8QG5-10" target="xlBdkiBRD-m0Y12R8QG5-11">
          <mxGeometry relative="1" as="geometry">
            <mxPoint x="135" y="350" as="sourcePoint" />
            <mxPoint x="140" y="230" as="targetPoint" />
          </mxGeometry>
        </mxCell>
        <mxCell id="xlBdkiBRD-m0Y12R8QG5-16" value="&lt;span style=&quot;color: rgb(199, 37, 78); font-family: Menlo, Monaco, Consolas, &amp;quot;Courier New&amp;quot;, monospace; font-size: 12.6px; font-style: normal; font-variant-ligatures: normal; font-variant-caps: normal; font-weight: 400; letter-spacing: normal; orphans: 2; text-align: left; text-indent: 0px; text-transform: none; widows: 2; word-spacing: 0px; -webkit-text-stroke-width: 0px; background-color: rgb(249, 242, 244); text-decoration-thickness: initial; text-decoration-style: initial; text-decoration-color: initial; float: none; display: inline !important;&quot;&gt;www.foobar.com&lt;/span&gt;" style="text;whiteSpace=wrap;html=1;" vertex="1" parent="1">
          <mxGeometry x="120" y="320" width="130" height="40" as="geometry" />
        </mxCell>
        <mxCell id="xlBdkiBRD-m0Y12R8QG5-18" style="edgeStyle=orthogonalEdgeStyle;rounded=0;orthogonalLoop=1;jettySize=auto;html=1;entryX=0.698;entryY=0;entryDx=0;entryDy=0;entryPerimeter=0;exitX=0.25;exitY=1;exitDx=0;exitDy=0;exitPerimeter=0;" edge="1" parent="1" source="xlBdkiBRD-m0Y12R8QG5-11" target="xlBdkiBRD-m0Y12R8QG5-10">
          <mxGeometry relative="1" as="geometry" />
        </mxCell>
        <mxCell id="xlBdkiBRD-m0Y12R8QG5-19" value="&lt;span style=&quot;color: rgb(199, 37, 78); font-family: Menlo, Monaco, Consolas, &amp;quot;Courier New&amp;quot;, monospace; font-size: 12.6px; font-style: normal; font-variant-ligatures: normal; font-variant-caps: normal; font-weight: 400; letter-spacing: normal; orphans: 2; text-align: left; text-indent: 0px; text-transform: none; widows: 2; word-spacing: 0px; -webkit-text-stroke-width: 0px; background-color: rgb(249, 242, 244); text-decoration-thickness: initial; text-decoration-style: initial; text-decoration-color: initial; float: none; display: inline !important;&quot;&gt;8.8.8.8&lt;/span&gt;" style="text;whiteSpace=wrap;html=1;" vertex="1" parent="1">
          <mxGeometry x="60" y="270" width="60" height="40" as="geometry" />
        </mxCell>
        <mxCell id="xlBdkiBRD-m0Y12R8QG5-23" value="Application Server" style="text;html=1;align=center;verticalAlign=middle;resizable=0;points=[];autosize=1;strokeColor=none;fillColor=none;" vertex="1" parent="1">
          <mxGeometry x="690" y="442.1" width="120" height="30" as="geometry" />
        </mxCell>
        <mxCell id="xlBdkiBRD-m0Y12R8QG5-24" value="Web server" style="text;html=1;align=center;verticalAlign=middle;resizable=0;points=[];autosize=1;strokeColor=none;fillColor=none;" vertex="1" parent="1">
          <mxGeometry x="570" y="442.1" width="80" height="30" as="geometry" />
        </mxCell>
        <mxCell id="xlBdkiBRD-m0Y12R8QG5-25" value="Server" style="text;html=1;align=center;verticalAlign=middle;resizable=0;points=[];autosize=1;strokeColor=none;fillColor=none;" vertex="1" parent="1">
          <mxGeometry x="450" y="442.1" width="60" height="30" as="geometry" />
        </mxCell>
        <mxCell id="xlBdkiBRD-m0Y12R8QG5-35" style="edgeStyle=orthogonalEdgeStyle;rounded=0;orthogonalLoop=1;jettySize=auto;html=1;exitX=1;exitY=0.5;exitDx=0;exitDy=0;exitPerimeter=0;entryX=0;entryY=0.5;entryDx=0;entryDy=0;" edge="1" parent="1" source="xlBdkiBRD-m0Y12R8QG5-26" target="xlBdkiBRD-m0Y12R8QG5-28">
          <mxGeometry relative="1" as="geometry" />
        </mxCell>
        <mxCell id="xlBdkiBRD-m0Y12R8QG5-37" style="edgeStyle=orthogonalEdgeStyle;rounded=0;orthogonalLoop=1;jettySize=auto;html=1;entryX=1;entryY=0.75;entryDx=0;entryDy=0;exitX=-0.149;exitY=0.76;exitDx=0;exitDy=0;exitPerimeter=0;" edge="1" parent="1" source="xlBdkiBRD-m0Y12R8QG5-26" target="xlBdkiBRD-m0Y12R8QG5-8">
          <mxGeometry relative="1" as="geometry" />
        </mxCell>
        <mxCell id="xlBdkiBRD-m0Y12R8QG5-26" value="" style="shape=mxgraph.cisco.servers.software_based_server;html=1;pointerEvents=1;dashed=0;fillColor=#036897;strokeColor=#ffffff;strokeWidth=2;verticalLabelPosition=bottom;verticalAlign=top;align=center;outlineConnect=0;" vertex="1" parent="1">
          <mxGeometry x="590" y="363.6" width="67" height="77" as="geometry" />
        </mxCell>
        <mxCell id="xlBdkiBRD-m0Y12R8QG5-36" style="edgeStyle=orthogonalEdgeStyle;rounded=0;orthogonalLoop=1;jettySize=auto;html=1;" edge="1" parent="1">
          <mxGeometry relative="1" as="geometry">
            <mxPoint x="720" y="420" as="sourcePoint" />
            <mxPoint x="650" y="420" as="targetPoint" />
          </mxGeometry>
        </mxCell>
        <mxCell id="xlBdkiBRD-m0Y12R8QG5-28" value="" style="image;html=1;image=img/lib/clip_art/computers/Software_128x128.png" vertex="1" parent="1">
          <mxGeometry x="710" y="362.1" width="80" height="80" as="geometry" />
        </mxCell>
        <mxCell id="xlBdkiBRD-m0Y12R8QG5-31" style="edgeStyle=orthogonalEdgeStyle;rounded=0;orthogonalLoop=1;jettySize=auto;html=1;exitX=1;exitY=0.5;exitDx=0;exitDy=0;" edge="1" parent="1" source="xlBdkiBRD-m0Y12R8QG5-8" target="xlBdkiBRD-m0Y12R8QG5-26">
          <mxGeometry relative="1" as="geometry">
            <mxPoint x="590" y="400" as="targetPoint" />
          </mxGeometry>
        </mxCell>
        <mxCell id="xlBdkiBRD-m0Y12R8QG5-32" value="&lt;span style=&quot;color: rgb(199, 37, 78); font-family: Menlo, Monaco, Consolas, &amp;quot;Courier New&amp;quot;, monospace; font-size: 12.6px; font-style: normal; font-variant-ligatures: normal; font-variant-caps: normal; font-weight: 400; letter-spacing: normal; orphans: 2; text-align: left; text-indent: 0px; text-transform: none; widows: 2; word-spacing: 0px; -webkit-text-stroke-width: 0px; background-color: rgb(249, 242, 244); text-decoration-thickness: initial; text-decoration-style: initial; text-decoration-color: initial; float: none; display: inline !important;&quot;&gt;8.8.8.8&lt;/span&gt;" style="text;whiteSpace=wrap;html=1;" vertex="1" parent="1">
          <mxGeometry x="260" y="390" width="60" height="40" as="geometry" />
        </mxCell>
        <mxCell id="xlBdkiBRD-m0Y12R8QG5-38" value="" style="image;aspect=fixed;html=1;points=[];align=center;fontSize=12;image=img/lib/azure2/general/Files.svg;" vertex="1" parent="1">
          <mxGeometry x="718" y="215.46" width="64" height="70" as="geometry" />
        </mxCell>
        <mxCell id="xlBdkiBRD-m0Y12R8QG5-39" style="edgeStyle=orthogonalEdgeStyle;rounded=0;orthogonalLoop=1;jettySize=auto;html=1;exitX=0.5;exitY=0;exitDx=0;exitDy=0;entryX=0.5;entryY=0.986;entryDx=0;entryDy=0;entryPerimeter=0;" edge="1" parent="1" source="xlBdkiBRD-m0Y12R8QG5-28" target="xlBdkiBRD-m0Y12R8QG5-38">
          <mxGeometry relative="1" as="geometry" />
        </mxCell>
        <mxCell id="xlBdkiBRD-m0Y12R8QG5-40" style="edgeStyle=orthogonalEdgeStyle;rounded=0;orthogonalLoop=1;jettySize=auto;html=1;exitX=0;exitY=0.75;exitDx=0;exitDy=0;entryX=0.016;entryY=0.826;entryDx=0;entryDy=0;entryPerimeter=0;" edge="1" parent="1" source="xlBdkiBRD-m0Y12R8QG5-8" target="xlBdkiBRD-m0Y12R8QG5-10">
          <mxGeometry relative="1" as="geometry" />
        </mxCell>
        <mxCell id="xlBdkiBRD-m0Y12R8QG5-41" value="RESPONSE" style="text;html=1;align=center;verticalAlign=middle;resizable=0;points=[];autosize=1;strokeColor=none;fillColor=none;" vertex="1" parent="1">
          <mxGeometry x="250" y="420" width="90" height="30" as="geometry" />
        </mxCell>
        <mxCell id="xlBdkiBRD-m0Y12R8QG5-42" value="Data" style="text;html=1;align=center;verticalAlign=middle;resizable=0;points=[];autosize=1;strokeColor=none;fillColor=none;" vertex="1" parent="1">
          <mxGeometry x="660" y="420" width="50" height="30" as="geometry" />
        </mxCell>
        <mxCell id="xlBdkiBRD-m0Y12R8QG5-45" value="" style="shape=cylinder3;whiteSpace=wrap;html=1;boundedLbl=1;backgroundOutline=1;size=15;" vertex="1" parent="1">
          <mxGeometry x="720" y="520" width="60" height="80" as="geometry" />
        </mxCell>
        <mxCell id="xlBdkiBRD-m0Y12R8QG5-46" style="edgeStyle=orthogonalEdgeStyle;rounded=0;orthogonalLoop=1;jettySize=auto;html=1;exitX=0.5;exitY=1;exitDx=0;exitDy=0;entryX=0.5;entryY=0;entryDx=0;entryDy=0;entryPerimeter=0;" edge="1" parent="1" source="xlBdkiBRD-m0Y12R8QG5-28" target="xlBdkiBRD-m0Y12R8QG5-45">
          <mxGeometry relative="1" as="geometry" />
        </mxCell>
      </root>
    </mxGraphModel>
  </diagram>
</mxfile>
